<svg version="1.0" xmlns="http://www.w3.org/2000/svg" width="16" height="15.175" fill="#000" viewBox="0 0 12 11.382"><path d="M9.882 0.019c-0.034 0.006 -0.124 0.031 -0.201 0.049 -0.581 0.142 -1.123 0.696 -1.284 1.308 -0.068 0.272 -0.071 8.351 0 8.623 0.121 0.467 0.495 0.947 0.903 1.16a1.82 1.82 0 0 0 2.499 -0.801c0.207 -0.411 0.201 -0.243 0.201 -4.672 0 -4.454 0.01 -4.228 -0.214 -4.679 -0.154 -0.309 -0.312 -0.492 -0.581 -0.677a1.753 1.753 0 0 0 -0.968 -0.317c-0.161 -0.003 -0.321 -0.003 -0.356 0.006zM5.629 4.589c-0.69 0.145 -1.225 0.665 -1.407 1.364 -0.068 0.272 -0.071 3.745 0 4.02a1.836 1.836 0 0 0 0.495 0.866 1.808 1.808 0 0 0 2.796 -0.278c0.086 -0.13 0.189 -0.328 0.226 -0.442 0.071 -0.204 0.071 -0.226 0.081 -2.069 0.01 -2.054 0.006 -2.084 -0.182 -2.471 -0.362 -0.736 -1.215 -1.156 -2.007 -0.989zm-4.07 3.016c-0.751 0.121 -1.358 0.69 -1.516 1.42 -0.173 0.819 0.13 1.612 0.776 2.044a1.796 1.796 0 0 0 2.289 -0.226c0.381 -0.383 0.541 -0.786 0.541 -1.364 0 -0.371 -0.052 -0.597 -0.211 -0.912 -0.328 -0.662 -1.141 -1.076 -1.88 -0.962z"/></svg>